<svg width="128" height="128" viewBox="0 0 128 128" fill="none" xmlns="http://www.w3.org/2000/svg">
<rect width="128" height="128" rx="20" fill="black"/>
<path d="M61.6 93.8C55.84 93.8 51.3067 92.2 48 89C44.6933 85.8 43.04 81.4533 43.04 75.96H51.6C51.6 79.2133 52.48 81.7467 54.24 83.56C56 85.32 58.4533 86.2 61.6 86.2C64.7467 86.2 67.2 85.32 68.96 83.56C70.72 81.7467 71.6 79.24 71.6 76.04V42.52H57.84V34.6H80.16V76.04C80.16 81.5333 78.48 85.88 75.12 89.08C71.8133 92.2267 67.3067 93.8 61.6 93.8Z" fill="white"/>
</svg>
